<?xml version="1.0" encoding="utf-8"?>
<!-- Generator: Adobe Illustrator 19.0.0, SVG Export Plug-In . SVG Version: 6.00 Build 0)  -->
<svg version="1.1" id="Layer_1" xmlns="http://www.w3.org/2000/svg" xmlns:xlink="http://www.w3.org/1999/xlink" x="0px" y="0px"
	 viewBox="0 0 512 512" style="enable-background:new 0 0 512 512;" xml:space="preserve">
<g id="XMLID_1_">
	<path id="XMLID_5_" d="M374.4,121C332.6,61.5,291.7,24.4,263,2.1c-3.7-2.8-9.3-2.8-13,0C222.1,23.5,181.2,61.5,138.5,121
		C93,185.1,61.4,253.8,59.5,330.9c0,1.9,0,2.8,0,4.6c0,22.3,4.6,43.7,13,64.1c4.6,11.1,11.1,22.3,18.6,32.5
		c35.3,48.3,95.7,79.9,164.4,79.9c108.7,0,196.9-78.9,196.9-175.5C453.4,256.6,419.9,185.1,374.4,121z M268.5,446.1L268.5,446.1
		c-13,0-15.8-17.6-3.7-21.4c55.7-17.6,85.4-47.4,105.9-99.4c4.6-11.1,20.4-8.4,20.4,3.7v1.9C391.1,394,336.3,446.1,268.5,446.1
		L268.5,446.1z"/>
</g>
</svg>
